<mxfile host="app.diagrams.net" modified="2023-11-05T13:23:13.392Z" agent="Mozilla/5.0 (Windows NT 10.0; Win64; x64) AppleWebKit/537.36 (KHTML, like Gecko) Chrome/118.0.0.0 Safari/537.36 Edg/118.0.2088.69" etag="qVbQRpgTl_e_KWP9ob8S" version="22.0.8" type="github">
  <diagram name="Page-1" id="XXso40kAwIbqa_KP6pxx">
    <mxGraphModel dx="988" dy="553" grid="1" gridSize="10" guides="1" tooltips="1" connect="1" arrows="1" fold="1" page="1" pageScale="1" pageWidth="827" pageHeight="1169" math="0" shadow="0">
      <root>
        <mxCell id="0" />
        <mxCell id="1" parent="0" />
        <mxCell id="kldq2TlVaD8RshHTFxZq-5" value="" style="edgeStyle=orthogonalEdgeStyle;rounded=0;orthogonalLoop=1;jettySize=auto;html=1;" edge="1" parent="1" source="kldq2TlVaD8RshHTFxZq-1" target="kldq2TlVaD8RshHTFxZq-3">
          <mxGeometry relative="1" as="geometry" />
        </mxCell>
        <mxCell id="kldq2TlVaD8RshHTFxZq-6" value="&lt;font style=&quot;font-size: 14px;&quot;&gt;located_in&lt;/font&gt;" style="edgeLabel;html=1;align=center;verticalAlign=middle;resizable=0;points=[];" vertex="1" connectable="0" parent="kldq2TlVaD8RshHTFxZq-5">
          <mxGeometry x="-0.44" y="1" relative="1" as="geometry">
            <mxPoint x="41" y="-19" as="offset" />
          </mxGeometry>
        </mxCell>
        <mxCell id="kldq2TlVaD8RshHTFxZq-1" value="Plant" style="swimlane;childLayout=stackLayout;horizontal=1;startSize=50;horizontalStack=0;rounded=1;fontSize=14;fontStyle=0;strokeWidth=2;resizeParent=0;resizeLast=1;shadow=0;dashed=0;align=center;arcSize=4;whiteSpace=wrap;html=1;" vertex="1" parent="1">
          <mxGeometry x="80" y="170" width="160" height="120" as="geometry" />
        </mxCell>
        <mxCell id="kldq2TlVaD8RshHTFxZq-2" value="+common_name&lt;br&gt;+scientific_name&lt;br&gt;+familly_type" style="align=left;strokeColor=none;fillColor=none;spacingLeft=4;fontSize=12;verticalAlign=top;resizable=0;rotatable=0;part=1;html=1;" vertex="1" parent="kldq2TlVaD8RshHTFxZq-1">
          <mxGeometry y="50" width="160" height="70" as="geometry" />
        </mxCell>
        <mxCell id="kldq2TlVaD8RshHTFxZq-3" value="Garden zone" style="swimlane;childLayout=stackLayout;horizontal=1;startSize=50;horizontalStack=0;rounded=1;fontSize=14;fontStyle=0;strokeWidth=2;resizeParent=0;resizeLast=1;shadow=0;dashed=0;align=center;arcSize=4;whiteSpace=wrap;html=1;" vertex="1" parent="1">
          <mxGeometry x="450" y="170" width="160" height="120" as="geometry" />
        </mxCell>
        <mxCell id="kldq2TlVaD8RshHTFxZq-4" value="+zone_name&lt;br&gt;+zone_location" style="align=left;strokeColor=none;fillColor=none;spacingLeft=4;fontSize=12;verticalAlign=top;resizable=0;rotatable=0;part=1;html=1;" vertex="1" parent="kldq2TlVaD8RshHTFxZq-3">
          <mxGeometry y="50" width="160" height="70" as="geometry" />
        </mxCell>
      </root>
    </mxGraphModel>
  </diagram>
</mxfile>
